<svg version="1" xmlns="http://www.w3.org/2000/svg" width="682.667" height="682.667" viewBox="0 0 512.000000 512.000000"><path d="M411.5 25.5c-29.8 4.6-56.9 16.8-79.5 35.6-3.4 2.9-16 14.9-27.8 26.8-14.9 14.9-20.7 20.2-18.8 17.1 7.2-11.7 10.3-23.1 10.5-38.3l.2-10.8-10.8.2c-11 .1-21.8 2.2-29.1 5.6-9.1 4.2-17.7 11.8-55.7 49.8-22.3 22.3-41 40.3-41.7 40-.7-.2-4-.6-7.3-.9-3.3-.3-11.6-1.2-18.5-2.1-15-1.8-19.6-2.3-25.5-3-2.5-.3-6.5-.7-9-1-7.1-.8-13.4-1.5-21.5-2.5-4.1-.5-9.6-1.2-12.2-1.5L60 140l-9.5 9.5c-5.2 5.2-9.5 9.9-9.5 10.5 0 .6 12.4 13.4 27.5 28.5L96 216l-8 8-8 8v24l13.5 13.5c7.4 7.4 14 13.5 14.7 13.5.7 0 .1 1.1-1.4 2.4l-2.8 2.3v40.4l12 11.9 12.1 12-6.8.1c-26.7.3-48.2 8.7-66.8 26.1-13.6 12.7-22.8 28.3-27.5 47-2.6 10.6-2.8 12.3-2.9 37l-.2 26 27.3-.5c30-.5 30.4-.6 43.1-4.8 38.9-12.9 64.9-48.7 65.7-90.4 0-3.8.3-7.1.5-7.3.2-.2 5.6 4.8 11.9 11.2L184 408h20.1c19.2 0 20.3-.1 22-2.1 1.8-2.1 1.9-2 15.8 12l14 14.1H280.2l7.9-8 7.9-8 28 28 28 28 10.1-10c9.3-9.3 10-10.3 9.5-13.3-.3-1.7-.8-5.9-1.1-9.2-.3-3.3-.8-7.8-1-10-.9-7.4-2.6-22-3-25.5-.3-1.9-.7-5.8-1-8.5-.4-2.8-.8-6.4-1-8-.2-1.7-.6-5.5-1-8.5-.3-3-.8-6.9-1-8.5-.2-1.7-.7-6.2-1.1-10-.3-3.9-.8-7.3-1-7.7-.3-.4 17.9-19 40.3-41.5 23.8-23.8 42.4-43.3 44.7-46.8 2.2-3.2 5.3-9.8 6.9-14.4 2.5-7.2 3-10.7 3.5-21.4l.5-12.8-10.9.2c-15.4.2-27.8 3.6-37.6 10.3-2.1 1.4-3.8 2.4-3.8 2.2 0-.2 10.2-10.7 22.6-23.2 30.1-30.4 40.6-44.7 50-68 3.8-9.5 8.8-27.7 10.1-36.9.4-3.3.8-18.2.8-33 0-29.9-.1-30.2-6.8-36.6-6.6-6.4-6.7-6.4-35.2-6.5-16.6-.1-28.9.3-34 1.1z"/></svg>